/* XPM */
static char *dfb9de0babca467a92ad56be9b3276e1Yk0TpKob4ZlGP8R9[] = {
/* columns rows colors chars-per-pixel */
"64 64 4 1 ",
"  c None",
". c #FFF8A1",
"X c #FFBCDC",
"o c #FFDAEC",
/* pixels */
"                                                                ",
"                                                                ",
"                                                                ",
"                                                                ",
"                                                                ",
"                                                                ",
"                                                                ",
"                                                                ",
"                                                                ",
"                                                                ",
"                                                                ",
"                                                                ",
"                                                                ",
"                                                                ",
"                                                                ",
"                                                                ",
"                                                                ",
"                                                                ",
"                                                                ",
"                                                                ",
"                                                                ",
"                                                                ",
"                       XXXXXX      XXXXXX                       ",
"                       XXXXXX      XXXXXX                       ",
"                     XXXXoXXXXX  XXXXXX.XXX                     ",
"                     XXooXXXXXX  XXXXXX.XXX                     ",
"                   XXXoooXXXXXXXXXXXX.....XXX                   ",
"                   XXoooXXXXXXXXXXXXXXX.XXXXX                   ",
"                   XXooXXXXXXXXXXXXXXXX.XXXXX                   ",
"                   XXoXXXXXXXXXXXXXXXXXXXXXoX                   ",
"                   XXXXXXXXXXXXXXXXXXXXXXXXXX                   ",
"                   XXXXXXXXXXXXXXXXXXXXXXXXXX                   ",
"                    XXXXXXXXXXXXXXXXXXXXooXX                    ",
"                    XXXXX.XXXXXXXXXXXXXXoXXX                    ",
"                      XX...XXXXXXXXXXXXoXX                      ",
"                      XXX.XXXXXXXXXXXXoXXX                      ",
"                        XXXXXXXXXXXXXXXX                        ",
"                        XXXXXXXXXXXXXXXX                        ",
"                          XXXXXXXXXXXX                          ",
"                          XXXXXXXXXXXX                          ",
"                             XXXXXX                             ",
"                             XXXXXX                             ",
"                               XX                               ",
"                               XX                               ",
"                                                                ",
"                                                                ",
"                                                                ",
"                                                                ",
"                                                                ",
"                                                                ",
"                                                                ",
"                                                                ",
"                                                                ",
"                                                                ",
"                                                                ",
"                                                                ",
"                                                                ",
"                                                                ",
"                                                                ",
"                                                                ",
"                                                                ",
"                                                                ",
"                                                                ",
"                                                                "
};
