/* XPM */
static char *a10ce00f28a941dddd04f0259e45a984xE867s9I1ObjttfI[] = {
/* columns rows colors chars-per-pixel */
"64 64 7 1 ",
"  c black",
". c #211F24",
"X c #28262B",
"o c #2A2532",
"O c #322F36",
"+ c #3D3845",
"@ c #FFBCDC",
/* pixels */
"@@@@@@@@@@@@@@@@@@@@@@@@@@@@@@@@@@@@@@@@@@@@@@@@@@@@@@@@@@@@@@@@",
"@@@@@@@@@@@@@@@@@@@@@@@@@@@@@@@@@@@@@@@@@@@@@@@@@@@@@@@@@@@@@@@@",
"@@@@@@@@@@@@@@@@@@@@@@@@@@@@@@@@@@@@@@@@@@@@@@@@@@@@@@@@@@@@@@@@",
"@@@@@@@@@@@@@@@@@@@@@@@@@@@@@@@@@@@@@@@@@@@@@@@@@@@@@@@@@@@@@@@@",
"@@@@@@@@@@@@@@@@@@@@@@@@@@@@@@@@@@@@@@@@@@@@@@@@@@@@@@@@@@@@@@@@",
"@@@@@@@@@@@@@@@@@@@@@@@@@@@@@@@@@@@@@@@@@@@@@@@@@@@@@@@@@@@@@@@@",
"@@@@@@@@@@@@@@@@@@@@@@@@@@@@@@@@@@@@@@@@@@@@@@@@@@@@@@@@@@@@@@@@",
"@@@@@@@@@@@@@@@@@@@@@@@@@@@@@@@@@@@@@@@@@@@@@@@@@@@@@@@@@@@@@@@@",
"@@@@@@@@@@@@@@@@@@@@                        @@@@@@@@@@@@@@@@@@@@",
"@@@@@@@@@@@@@@@@@@@@ ooooo+ooooooo+ooooo+oo @@@@@@@@@@@@@@@@@@@@",
"@@@@@@@@@@@@@@@@@@@@ o++ooooo+oooo+oooo+ooo @@@@@@@@@@@@@@@@@@@@",
"@@@@@@@@@@@@@@@@@@@@ ooo+oooooo+ooo+oooooo+ @@@@@@@@@@@@@@@@@@@@",
"@@@@@@@@@@@@@@@@     ......................     @@@@@@@@@@@@@@@@",
"@@@@@@@@@@@@@@@@ +oo.XXXXXXXXXXXXXXXXXXXXXX.ooo @@@@@@@@@@@@@@@@",
"@@@@@@@@@@@@@@@@ ooo.XOOOOOOOOOOOOOOOOOOOOX.+oo @@@@@@@@@@@@@@@@",
"@@@@@@@@@@@@@@@@ ooo.XOOOOOOOOOOOOOOOOOOOOX.ooo @@@@@@@@@@@@@@@@",
"@@@@@@@@@@@@@@@@ ooo.XOOOOOOOOOOOOOOOOOOOOX.ooo @@@@@@@@@@@@@@@@",
"@@@@@@@@@@@@@@@@ oo+.XOOOOOOOOOOOOOOOOOOOOX.oo+ @@@@@@@@@@@@@@@@",
"@@@@@@@@@@@@@@@@ o+o.XOOOOOOOOOOOOOOOOOOOOX.ooo @@@@@@@@@@@@@@@@",
"@@@@@@@@@@@@@@@@ ooo.XOOOOOOOOOOOOOOOOOOOOX.o+o @@@@@@@@@@@@@@@@",
"@@@@@@@@@@@@@@@@ o+o.XOOOOOOOOOOOOOOOOOOOOX.ooo @@@@@@@@@@@@@@@@",
"@@@@@@@@@@@@@@@@ ooo.XOOOOOOOOOOOOOOOOOOOOX.ooo @@@@@@@@@@@@@@@@",
"@@@@@@@@@@@@@@@@ ooo.XOOOOOOOOOOOOOOOOOOOOX.o++ @@@@@@@@@@@@@@@@",
"@@@@@@@@@@@@@@@@ o+o.XOOOOOOOOOOOOOOOOOOOOX.ooo @@@@@@@@@@@@@@@@",
"@@@@@@@@@@@@@@@@ ++o.XOOOOOOOOOOOOOOOOOOOOX.o+o @@@@@@@@@@@@@@@@",
"@@@@@@@@@@@@@@@@ ooo.XOOOOOOOOOOOOOOOOOOOOX.o+o @@@@@@@@@@@@@@@@",
"@@@@@@@@@@@@@@@@ ooo.XOOOOOOOOOOOOOOOOOOOOX.ooo @@@@@@@@@@@@@@@@",
"@@@@@@@@@@@@@@@@ +oo.XOOOOOOOOOOOOOOOOOOOOX.ooo @@@@@@@@@@@@@@@@",
"@@@@@@@@@@@@@@@@ ooo.XOOOOOOOOOOOOOOOOOOOOX.ooo @@@@@@@@@@@@@@@@",
"@@@@@@@@@@@@@@@@ ooo.XOOOOOOOOOOOOOOOOOOOOX.o+o @@@@@@@@@@@@@@@@",
"@@@@@@@@@@@@@@@@ oo+.XOOOOOOOOOOOOOOOOOOOOX.oo+ @@@@@@@@@@@@@@@@",
"@@@@@@@@@@@@@@@@ oo+.XOOOOOOOOOOOOOOOOOOOOX.o+o @@@@@@@@@@@@@@@@",
"@@@@@@@@@@@@@@@@ +o+.XOOOOOOOOOOOOOOOOOOOOX.+oo @@@@@@@@@@@@@@@@",
"@@@@@@@@@@@@@@@@ ooo.XOOOOOOOOOOOOOOOOOOOOX.oo+ @@@@@@@@@@@@@@@@",
"@@@@@@@@@@@@@@@@ ++o.XOOOOOOOOOOOOOOOOOOOOX.oo+ @@@@@@@@@@@@@@@@",
"@@@@@@@@@@@@@@@@ +oo.XOOOOOOOOOOOOOOOOOOOOX.ooo @@@@@@@@@@@@@@@@",
"@@@@@@@@@@@@@@@@ o+o.XOOOOOOOOOOOOOOOOOOOOX.ooo @@@@@@@@@@@@@@@@",
"@@@@@@@@@@@@@@@@ o+o.XOOOOOOOOOOOOOOOOOOOOX.ooo @@@@@@@@@@@@@@@@",
"@@@@@@@@@@@@@@@@ ooo.XOOOOOOOOOOOOOOOOOOOOX.++o @@@@@@@@@@@@@@@@",
"@@@@@@@@@@@@@@@@ ooo.XOOOOOOOOOOOOOOOOOOOOX.o+o @@@@@@@@@@@@@@@@",
"@@@@@@@@@@@@@@@@ ++o.XOOOOOOOOOOOOOOOOOOOOX.ooo @@@@@@@@@@@@@@@@",
"@@@@@@@@@@@@@@@@ ooo.XOOOOOOOOOOOOOOOOOOOOX.ooo @@@@@@@@@@@@@@@@",
"@@@@@@@@@@@@@@@@ ooo.XOOOOOOOOOOOOOOOOOOOOX.o+o @@@@@@@@@@@@@@@@",
"@@@@@@@@@@@@@@@@ o+o.XOOOOOOOOOOOOOOOOOOOOX.oo+ @@@@@@@@@@@@@@@@",
"@@@@@@@@@@@@@@@@ ooo.XOOOOOOOOOOOOOOOOOOOOX.ooo @@@@@@@@@@@@@@@@",
"@@@@@@@@@@@@@@@@ o+o.XOOOOOOOOOOOOOOOOOOOOX.ooo @@@@@@@@@@@@@@@@",
"@@@@@@@@@@@@@@@@ ooo.XOOOOOOOOOOOOOOOOOOOOX.ooo @@@@@@@@@@@@@@@@",
"@@@@@@@@@@@@@@@@ ++o.XOOOOOOOOOOOOOOOOOOOOX.+++ @@@@@@@@@@@@@@@@",
"@@@@@@@@@@@@@@@@ o++.XOOOOOOOOOOOOOOOOOOOOX.o+o @@@@@@@@@@@@@@@@",
"@@@@@@@@@@@@@@@@ ooo.XOOOOOOOOOOOOOOOOOOOOX.ooo @@@@@@@@@@@@@@@@",
"@@@@@@@@@@@@@@@@ ooo.XXXXXXXXXXXXXXXXXXXXXX.oo+ @@@@@@@@@@@@@@@@",
"@@@@@@@@@@@@@@@@     ......................     @@@@@@@@@@@@@@@@",
"@@@@@@@@@@@@@@@@@@@@ ++ooooooooooooo+oooooo @@@@@@@@@@@@@@@@@@@@",
"@@@@@@@@@@@@@@@@@@@@ oo++o++oooo+o+ooooo+o+ @@@@@@@@@@@@@@@@@@@@",
"@@@@@@@@@@@@@@@@@@@@ ooo+ooooooooo++ooo++oo @@@@@@@@@@@@@@@@@@@@",
"@@@@@@@@@@@@@@@@@@@@                        @@@@@@@@@@@@@@@@@@@@",
"@@@@@@@@@@@@@@@@@@@@@@@@@@@@@@@@@@@@@@@@@@@@@@@@@@@@@@@@@@@@@@@@",
"@@@@@@@@@@@@@@@@@@@@@@@@@@@@@@@@@@@@@@@@@@@@@@@@@@@@@@@@@@@@@@@@",
"@@@@@@@@@@@@@@@@@@@@@@@@@@@@@@@@@@@@@@@@@@@@@@@@@@@@@@@@@@@@@@@@",
"@@@@@@@@@@@@@@@@@@@@@@@@@@@@@@@@@@@@@@@@@@@@@@@@@@@@@@@@@@@@@@@@",
"@@@@@@@@@@@@@@@@@@@@@@@@@@@@@@@@@@@@@@@@@@@@@@@@@@@@@@@@@@@@@@@@",
"@@@@@@@@@@@@@@@@@@@@@@@@@@@@@@@@@@@@@@@@@@@@@@@@@@@@@@@@@@@@@@@@",
"@@@@@@@@@@@@@@@@@@@@@@@@@@@@@@@@@@@@@@@@@@@@@@@@@@@@@@@@@@@@@@@@",
"@@@@@@@@@@@@@@@@@@@@@@@@@@@@@@@@@@@@@@@@@@@@@@@@@@@@@@@@@@@@@@@@"
};
