/* XPM */
static char *_99cbf8d3adf426ee6d9a23b9bf7933f5CD82K5cJUApUqM5[] = {
/* columns rows colors chars-per-pixel */
"64 64 6 1 ",
"  c #DE628B",
". c #FFF8A1",
"X c #FF85C0",
"o c #FF87C4",
"O c #FFB8DC",
"+ c #FFBCDC",
/* pixels */
"++++++++++++++++++++++++++++++++++++++++++++++++++++++++++++++++",
"++++++++++++++++++++++++++++++++++++++++++++++++++++++++++++++++",
"++++++++++++++++++++++++++++++++++++++++++++++++++++++++++++++++",
"++++++++++++++++++++++++++++++++++++++++++++++++++++++++++++++++",
"++++++++++++++++++++++++++++++++++++++++++++++++++++++++++++++++",
"++++++++++++++++++++++++++++++++++++++++++++++++++++++++++++++++",
"++++++++++++++++++++++++++++++++++++++++++++++++++++++++++++++++",
"++++++++++++++++++++++++++++++++++++++++++++++++++++++++++++++++",
"++++++++++++++++++++++++++++++++++++++++++++++++++++++++++++++++",
"++++++++++++++++++++++++++++++++++++++++++++++++++++++++++++++++",
"++++++++++++++++++++++++++++++++++++++++++++++++++++++++++++++++",
"++++++++++++++++++++++++++++++++++++++++++++++++++++++++++++++++",
"++++++++++++++++++++++++++++++++++++++++++++++++++++++++++++++++",
"++++++++++++++++++++++++++++++++++++++++++++++++++++++++++++++++",
"++++++++++++++++++++++++++++++++++++++++++++++++++++++++++++++++",
"++++++++++++++++++++++++++++++++++++++++++++++++++++++++++++++++",
"++++++++++++++++++++++++++++++++++++++++++++++++++++++++++++++++",
"++++++++++++++++++++++++++++++++++++++++++++++++++++++++++++++++",
"++++++++++++++++++++++++++++++++++++++++++++++++++++++++++++++++",
"++++++++++++++++++++++++      ++++++      ++++++++++++++++++++++",
"++++++++++++++++++++++++      ++++++      ++++++++++++++++++++++",
"++++++++++++++++++++++  oooooo  ++  oooooo  ++++++++++++++++++++",
"++++++++++++++++++++++  oooooo  ++  oooooo  ++++++++++++++++++++",
"++++++++++++++++++++  ooooooooooXXoooooo.ooo  ++++++++++++++++++",
"++++++++++++++++++++  oooOOoooooXXoooooo.ooo  ++++++++++++++++++",
"++++++++++++++++++  ooooOOoooooooooooo.....ooo  ++++++++++++++++",
"++++++++++++++++++  oooOOooooooooooooooo.ooooo  ++++++++++++++++",
"++++++++++++++++++  oooOoooooooooooooooo.ooooo  ++++++++++++++++",
"++++++++++++++++++  oooooooooooooooooooooooooo  ++++++++++++++++",
"++++++++++++++++++  oooooooooooooooooooooooooo  ++++++++++++++++",
"++++++++++++++++++  oooooooooooooooooooooooooo  ++++++++++++++++",
"+++++++++++++++++++  ooooooooooooooooooooOooo  +++++++++++++++++",
"+++++++++++++++++++  ooooo.ooooooooooooooOooo  +++++++++++++++++",
"+++++++++++++++++++++  oo...ooooooooooooOoo  +++++++++++++++++++",
"+++++++++++++++++++++  ooo.ooooooooooooOooo  +++++++++++++++++++",
"+++++++++++++++++++++++  oooooooooooooOoo  +++++++++++++++++++++",
"+++++++++++++++++++++++  oooooooooooOOooo  +++++++++++++++++++++",
"+++++++++++++++++++++++++  ooooooooOOoo  +++++++++++++++++++++++",
"+++++++++++++++++++++++++  oooooooOoooo  +++++++++++++++++++++++",
"+++++++++++++++++++++++++++   oooooo   +++++++++++++++++++++++++",
"+++++++++++++++++++++++++++   oooooo   +++++++++++++++++++++++++",
"++++++++++++++++++++++++++++++  oo  ++++++++++++++++++++++++++++",
"++++++++++++++++++++++++++++++  oo  ++++++++++++++++++++++++++++",
"++++++++++++++++++++++++++++++++  ++++++++++++++++++++++++++++++",
"++++++++++++++++++++++++++++++++  ++++++++++++++++++++++++++++++",
"++++++++++++++++++++++++++++++++++++++++++++++++++++++++++++++++",
"++++++++++++++++++++++++++++++++++++++++++++++++++++++++++++++++",
"++++++++++++++++++++++++++++++++++++++++++++++++++++++++++++++++",
"++++++++++++++++++++++++++++++++++++++++++++++++++++++++++++++++",
"++++++++++++++++++++++++++++++++++++++++++++++++++++++++++++++++",
"++++++++++++++++++++++++++++++++++++++++++++++++++++++++++++++++",
"++++++++++++++++++++++++++++++++++++++++++++++++++++++++++++++++",
"++++++++++++++++++++++++++++++++++++++++++++++++++++++++++++++++",
"++++++++++++++++++++++++++++++++++++++++++++++++++++++++++++++++",
"++++++++++++++++++++++++++++++++++++++++++++++++++++++++++++++++",
"++++++++++++++++++++++++++++++++++++++++++++++++++++++++++++++++",
"++++++++++++++++++++++++++++++++++++++++++++++++++++++++++++++++",
"++++++++++++++++++++++++++++++++++++++++++++++++++++++++++++++++",
"++++++++++++++++++++++++++++++++++++++++++++++++++++++++++++++++",
"++++++++++++++++++++++++++++++++++++++++++++++++++++++++++++++++",
"++++++++++++++++++++++++++++++++++++++++++++++++++++++++++++++++",
"++++++++++++++++++++++++++++++++++++++++++++++++++++++++++++++++",
"++++++++++++++++++++++++++++++++++++++++++++++++++++++++++++++++",
"++++++++++++++++++++++++++++++++++++++++++++++++++++++++++++++++"
};
