/* XPM */
static char *_6cc59597eec48c2fab77d6193df058aBgc40XplExpCRM43[] = {
/* columns rows colors chars-per-pixel */
"64 64 3 1 ",
"  c #FFBCDC",
". c #FFDAEC",
"X c white",
/* pixels */
"                                                                ",
" XXXXXXXXXXXXXXXXXXXXXXXXXXXXXXX XXXXXXXXXXXXXXXXXXXXXXXXXXXXXX ",
" XXXXXXXXXXXXXXXXXXXXXXXXXXXXXXX XXXXXXXXXXXXXXXXXXXXXXXXXXXXXX ",
" XXXXXXXXXXXXXXXXXXXXXXXXXXXXXXX XXXXXXXXXXXXXXXXXXXXXXXXXXXXXX ",
" XXXXXXXXXXXXXXXXXXXXXXXXXXXXXXX XXXXXXXXXXXXXXXXXXXXXXXXXXXXXX ",
" XXXXX      XXXXXX      XXXXXXXX XXXXXXX      XXXXXX      XXXXX ",
" XXXXX      XXXXXX      XXXXXXXX XXXXXXX      XXXXXX      XXXXX ",
" XXX          XX          XXXXXX XXXXX    .     XX          XXX ",
" XXX          XX          XXXXXX XXXXX  ..      XX          XXX ",
" X   .                      XXXX XXX   ...                    X ",
" X                          XXXX XXX  ...                     X ",
" X                          XXXX XXX  ..                      X ",
" X                          XXXX XXX  .                     . X ",
" X                          XXXX XXX                          X ",
" X                    .     XXXX XXX                          X ",
" XX                  ...   XXXXX XXXX                    ..  XX ",
" XX                   .    XXXXX XXXX                    .   XX ",
" XXXX                    XXXXXXX XXXXXX                 .  XXXX ",
" XXXX                    XXXXXXX XXXXXX                .   XXXX ",
" XXXXXX                XXXXXXXXX XXXXXXXX                XXXXXX ",
" XXXXXX                XXXXXXXXX XXXXXXXX                XXXXXX ",
" XXXXXXXX            XXXXXXXXXXX XXXXXXXXXX            XXXXXXXX ",
" XXXXXXXX            XXXXXXXXXXX XXXXXXXXXX            XXXXXXXX ",
" XXXXXXXXXXX      XXXXXXXXXXXXXX XXXXXXXXXXXXX      XXXXXXXXXXX ",
" XXXXXXXXXXX      XXXXXXXXXXXXXX XXXXXXXXXXXXX      XXXXXXXXXXX ",
" XXXXXXXXXXXXX  XXXXXXXXXXXXXXXX XXXXXXXXXXXXXXX  XXXXXXXXXXXXX ",
" XXXXXXXXXXXXX  XXXXXXXXXXXXXXXX XXXXXXXXXXXXXXX  XXXXXXXXXXXXX ",
" XXXXXXXXXXXXXXXXXXXXXXXXXXXXXXX XXXXXXXXXXXXXXXXXXXXXXXXXXXXXX ",
" XXXXXXXXXXXXXXXXXXXXXXXXXXXXXXX XXXXXXXXXXXXXXXXXXXXXXXXXXXXXX ",
" XXXXXXXXXXXXXXXXXXXXXXXXXXXXXXX XXXXXXXXXXXXXXXXXXXXXXXXXXXXXX ",
" XXXXXXXXXXXXXXXXXXXXXXXXXXXXXXX XXXXXXXXXXXXXXXXXXXXXXXXXXXXXX ",
"                                                                ",
"                                                                ",
" XXXXXXXXXXXXXXXXXXXXXXXXXXXXXXX XXXXXXXXXXXXXXXXXXXXXXXXXXXXXX ",
" XXXXXXXXXXXXXXXXXXXXXXXXXXXXXXX XXXXXXXXXXXXXXXXXXXXXXXXXXXXXX ",
" XXXXXXXXXXXXXXXXXXXXXXXXXXXXXXX XXXXXXXXXXXXXXXXXXXXXXXXXXXXXX ",
" XXXXXXXXXXXXXXXXXXXXXXXXXXXXXXX XXXXXXXXXXXXXXXXXXXXXXXXXXXXXX ",
" XXXXX      XXXXXX      XXXXXXXX XXXXXXX      XXXXXX      XXXXX ",
" XXXXX      XXXXXX      XXXXXXXX XXXXXXX      XXXXXX      XXXXX ",
" XXX          XX    ...   XXXXXX XXXXX   ..     XX          XXX ",
" XXX          XX      ..  XXXXXX XXXXX  ...     XX          XXX ",
" X                      .   XXXX XXX   ..                     X ",
" X                      ..  XXXX XXX   .                      X ",
" X                       .  XXXX XXX   .                      X ",
" X                          XXXX XXX                          X ",
" X                          XXXX XXX                          X ",
" X                          XXXX XXX                          X ",
" XXX                      XXXXXX XXXXX                      XXX ",
" XXX                      XXXXXX XXXXX                      XXX ",
" XXXXX  .               XXXXXXXX XXXXXXX                  XXXXX ",
" XXXXX   ..             XXXXXXXX XXXXXXX                  XXXXX ",
" XXXXXXX  .           XXXXXXXXXX XXXXXXXXX              XXXXXXX ",
" XXXXXXX   .          XXXXXXXXXX XXXXXXXXX              XXXXXXX ",
" XXXXXXXXX ..       XXXXXXXXXXXX XXXXXXXXXXX          XXXXXXXXX ",
" XXXXXXXXX  .       XXXXXXXXXXXX XXXXXXXXXXX          XXXXXXXXX ",
" XXXXXXXXXXX      XXXXXXXXXXXXXX XXXXXXXXXXXXX      XXXXXXXXXXX ",
" XXXXXXXXXXX      XXXXXXXXXXXXXX XXXXXXXXXXXXX      XXXXXXXXXXX ",
" XXXXXXXXXXXXX  XXXXXXXXXXXXXXXX XXXXXXXXXXXXXXX  XXXXXXXXXXXXX ",
" XXXXXXXXXXXXX  XXXXXXXXXXXXXXXX XXXXXXXXXXXXXXX  XXXXXXXXXXXXX ",
" XXXXXXXXXXXXXXXXXXXXXXXXXXXXXXX XXXXXXXXXXXXXXXXXXXXXXXXXXXXXX ",
" XXXXXXXXXXXXXXXXXXXXXXXXXXXXXXX XXXXXXXXXXXXXXXXXXXXXXXXXXXXXX ",
" XXXXXXXXXXXXXXXXXXXXXXXXXXXXXXX XXXXXXXXXXXXXXXXXXXXXXXXXXXXXX ",
" XXXXXXXXXXXXXXXXXXXXXXXXXXXXXXX XXXXXXXXXXXXXXXXXXXXXXXXXXXXXX ",
"                                                                "
};
