/* XPM */
static char *_c0163f383c44e6586de24dbc92c8dccvljEo1pi3juoq5CR[] = {
/* columns rows colors chars-per-pixel */
"64 64 3 1 ",
"  c #2F2E33",
". c #FFBCDC",
"X c white",
/* pixels */
"................................................................",
"................................................................",
"................................................................",
"................................................................",
"................................................................",
"................................................................",
"................................................................",
"................................................................",
"................................................................",
"................................................................",
"................................................................",
"................................................................",
"................................................................",
"................................................................",
"................................................................",
"................................................................",
"................................................................",
"................................................................",
".............  ..................................  .............",
"............    ................................    ............",
"...........     ................................     ...........",
"..........       ..............................       ..........",
".........         ............................         .........",
".........           ........................           .........",
"........             ......................             ........",
".......              ......................              .......",
".......                ..................                .......",
"......                  ................                  ......",
".....                                                      .....",
".....                                                      .....",
".....                                                      .....",
".....                                                      .....",
"....                                                        ....",
"....                                                        ....",
"....                                                        ....",
"....                                                        ....",
"....                                                        ....",
"....                                                        ....",
"....                                                        ....",
"....             XXXXX                    XXXXX             ....",
"....                                                        ....",
"......                                                    ......",
"......   XXX                                        XXX   ......",
"...... XX                       X                      XX ......",
"......     XX               X  X X  X              XX     ......",
"......    X                  XX   XX                 X    ......",
".......                                                  .......",
".......                                                  .......",
".......                                                  .......",
".........                                              .........",
"...........                                          ...........",
"............                                        ............",
"................                                ................",
"................................................................",
"................................................................",
"................................................................",
"................................................................",
"................................................................",
"................................................................",
"................................................................",
"................................................................",
"................................................................",
"................................................................",
"................................................................"
};
